# xmcd
#
# Track frame offsets:
#	150
#	14505
#	33425
#	56815
#	78080
#	99055
#	116587
#	129145
#	146670
#	163082
#	183770
#	199567
#	226162
#	242172
#	258905
#	275717
#
# Disc length: 3856 seconds
#
# Revision: 1
# Processed by: cddbd v1.5.2PL0 Copyright (c) Steve Scherf et al.
# Submitted via: audiograbber 1.83.01
#
DISCID=cc0f0e10
DTITLE=Vários - 1º Encontro das Águas
DYEAR=2003
DGENRE=Campesino
TTITLE0=Acampamento
TTITLE1=América da Paz
TTITLE2=A Volta do Ontem
TTITLE3=Me Acostumei Contigo
TTITLE4=Que Prenda é Essa?
TTITLE5=Três Bandeiras
TTITLE6=Fim de Mês
TTITLE7=Saudade do Meu Rincão
TTITLE8=Entre Mates e Sonhos
TTITLE9=Distâncias por Costumes
TTITLE10=Fragmentos
TTITLE11=O Encanto das Cataratas
TTITLE12=Meu Rio
TTITLE13=Encontros
TTITLE14=Estradeando uma Saudade
TTITLE15=Eldorado
EXTD=Foz do Iguaçú - Paraná - Brasil\nAbril de 2003
EXTT0=
EXTT1=
EXTT2=
EXTT3=
EXTT4=
EXTT5=
EXTT6=
EXTT7=
EXTT8=
EXTT9=
EXTT10=
EXTT11=
EXTT12=
EXTT13=
EXTT14=
EXTT15=
PLAYORDER=
